<svg width="481" height="120" viewBox="0 0 481 120" fill="none" xmlns="http://www.w3.org/2000/svg">
<path d="M62.25 83.15C62.68 81.37 62.85 79.76 62.78 78.33C62.76 76.85 62.36 75.49 61.58 74.22C60.83 72.91 59.6 71.57 57.87 70.15C56.14 68.69 53.75 67.02 50.64 65.11C47.01 62.88 43.52 60.39 40.21 57.71C36.7 54.88 33.65 51.85 31.16 48.72C28.74 45.61 27.4 42.63 27.34 39.91C27.58 37.37 29.53 35.19 33.11 33.29C36.73 31.55 40.98 30.26 45.63 29.29C50.12 28.2 54.63 27.28 59.04 26.48C63.21 25.45 67.09 24.59 70.76 23.91C74.31 23.12 77.61 22.65 80.73 22.57C85 22.41 87.97 23.24 89.78 25.1C91.69 27.03 92.54 29.78 92.32 33.35C92.21 36.97 91.05 41.13 88.84 45.78C84.86 45.6067 80.8033 45.3733 76.67 45.08C78.01 42.69 78.78 40.57 78.99 38.72C79.27 36.89 78.89 35.45 77.85 34.36C76.85 33.3 75.06 32.69 72.43 32.51C69.84 32.3 67.3 32.44 64.78 32.95C62.21 33.41 59.76 34.12 57.47 35.12C55.17 36.09 53.22 37.29 51.66 38.76C50.51 39.89 49.89 41.03 49.8 42.17C49.79 43.3 50.21 44.52 51.11 45.8C52.02 47.05 53.33 48.35 55.02 49.66C56.73 50.92 58.74 52.24 61.04 53.57C64.61 55.61 67.5 57.63 69.76 59.69C72.02 61.73 73.68 63.93 74.75 66.32C75.87 68.72 76.42 71.38 76.44 74.29C76.52 77.22 76.05 80.54 75.04 84.25C74.03 88.19 72.62 91.71 70.8 94.8C69.01 97.91 66.89 100.53 64.43 102.68C61.99 104.83 59.26 106.43 56.22 107.45C53.22 108.47 49.97 108.86 46.45 108.6C43.26 108.34 40.12 107.39 36.94 105.7C33.65 103.85 30.49 101.21 27.36 97.72C23.93 93.95 20.76 89.3 17.87 83.77C14.76 78.02 12.55 71.71 11.62 65.11C18.9333 67.7967 25.85 70.1933 32.37 72.3C32.15 75.56 32.51 78.54 33.34 81.15C34.19 83.72 35.39 85.94 36.89 87.77C38.37 89.53 40.08 90.93 41.99 91.93C43.85 92.9 45.85 93.52 48.01 93.82C50.74 94.18 53.02 93.94 54.9 93.11C56.81 92.25 58.37 90.93 59.58 89.2C60.84 87.48 61.73 85.47 62.25 83.15ZM159.69 16.98C151.523 47.8733 143.743 79.02 136.35 110.42C132.57 110.353 128.79 110.287 125.01 110.22C121.903 88.5933 119.397 67.4633 117.49 46.83C110.957 67.4033 104.943 88.3467 99.45 109.66C95.63 109.56 91.8067 109.453 87.98 109.34C96.34 79.0067 105.997 49.63 116.95 21.21C120.33 20.9033 123.707 20.5933 127.08 20.28C128.013 40.12 129.633 60.5567 131.94 81.59C137.68 60.2367 143.613 39.0433 149.74 18.01C153.06 17.67 156.377 17.3267 159.69 16.98ZM198.9 96.71C198.087 101.617 197.277 106.517 196.47 111.41C185.93 111.23 175.393 111.057 164.86 110.89C165.787 106.103 166.723 101.317 167.67 96.53C178.077 96.5833 188.487 96.6433 198.9 96.71ZM187.92 13.95C181.24 46.25 174.697 78.58 168.29 110.94C164.537 110.88 160.787 110.82 157.04 110.76C163.807 78.7467 170.787 46.8333 177.98 15.02C181.293 14.6667 184.607 14.31 187.92 13.95ZM202.27 52.96C201.45 57.8 200.63 62.63 199.81 67.45C191.03 67.6567 182.25 67.8667 173.47 68.08C174.443 63.4133 175.42 58.7433 176.4 54.07C185.027 53.69 193.65 53.32 202.27 52.96ZM212.75 11.27C211.957 16.2567 211.157 21.25 210.35 26.25C200.843 27.03 191.333 27.82 181.82 28.62C182.847 23.8333 183.87 19.0533 184.89 14.28C194.177 13.28 203.463 12.2767 212.75 11.27ZM247.36 24.73C238.8 54.15 229.75 83.18 220.21 111.82C216.237 111.753 212.263 111.687 208.29 111.62C220.497 77.96 232.063 43.5867 242.99 8.5C245.23 8.47333 247.473 8.49333 249.72 8.56C248.94 13.9667 248.153 19.3567 247.36 24.73ZM252.47 111.59C249.703 83.1367 247.13 54.17 244.75 24.69C244.97 19.3033 245.19 13.89 245.41 8.45C247.67 8.49667 249.93 8.58667 252.19 8.72C256.15 43.76 260.48 77.9367 265.18 111.25C260.94 111.363 256.703 111.477 252.47 111.59ZM255.44 74.32C254.96 79.3467 254.47 84.3633 253.97 89.37C243.19 89.41 232.507 89.42 221.92 89.4C222.633 84.3667 223.347 79.3233 224.06 74.27C234.46 74.25 244.92 74.2667 255.44 74.32ZM295.67 13.78C295.283 46.2667 294.58 78.52 293.56 110.54C289.553 110.633 285.55 110.73 281.55 110.83C283.217 78.33 284.59 45.5667 285.67 12.54C289.003 12.96 292.337 13.3733 295.67 13.78ZM327.55 17.8C321.07 32.2467 314.147 46.92 306.78 61.82C302.193 69.48 297.49 77.2 292.67 84.98C292.183 79.06 291.7 73.1267 291.22 67.18C294.487 60.6067 297.677 54.0767 300.79 47.59C305.817 37.0233 310.633 26.5733 315.24 16.24C319.347 16.76 323.45 17.28 327.55 17.8ZM318.42 109.97C312.027 95.47 305.783 80.7267 299.69 65.74C302.37 61.94 305.017 58.16 307.63 54.4C315.783 73.22 324.157 91.64 332.75 109.66C327.97 109.76 323.193 109.863 318.42 109.97ZM390.23 96.34C390.55 100.42 390.843 104.503 391.11 108.59C379.59 108.77 368.117 108.963 356.69 109.17C356.503 104.843 356.297 100.51 356.07 96.17C367.363 96.2033 378.75 96.26 390.23 96.34ZM351.38 20.84C355.207 50.5533 358.217 79.9733 360.41 109.1C356.357 109.18 352.313 109.26 348.28 109.34C346.6 79.66 344.263 49.7267 341.27 19.54C344.63 19.9733 348 20.4067 351.38 20.84ZM380.7 59.44C381.42 63.5467 382.11 67.6367 382.77 71.71C373.117 71.2167 363.567 70.7533 354.12 70.32C353.707 66.0533 353.273 61.7767 352.82 57.49C362.013 58.11 371.307 58.76 380.7 59.44ZM376.87 24.16C377.903 28.5133 378.93 32.8533 379.95 37.18C369.89 36.06 359.913 34.97 350.02 33.91C349.44 29.43 348.86 24.94 348.28 20.44C357.767 21.6667 367.297 22.9067 376.87 24.16ZM392.74 26.3C399.593 27.26 406.56 28.2533 413.64 29.28C418.24 29.97 422.92 31.61 427.86 34.24C433.22 36.94 438.94 40.61 444.99 45.21C451.49 49.91 457.67 55.36 462.93 61.42C466.71 66.08 468.29 69.75 467.69 72.44C466.61 74.98 464 76.77 460.25 77.92C456.69 79.13 452.55 79.9 447.97 80.26C446.11 80.7267 444.28 81.2067 442.48 81.7C433.187 80.66 424.43 79.78 416.21 79.06C415.417 75.12 414.53 71.1533 413.55 67.16C419.557 67.8 425.843 68.52 432.41 69.32C435.85 69.79 438.65 69.67 440.7 68.94C442.79 68.23 444.09 67.01 444.49 65.24C444.85 63.47 444.27 61.27 442.76 58.64C441.02 55.77 438.86 53.17 436.38 50.87C433.92 48.53 431.3 46.61 428.55 45.13C425.9 43.66 423.17 42.73 420.34 42.31C416.373 41.75 412.49 41.21 408.69 40.69C416.317 64.0233 421 86.5633 422.74 108.31C418.46 108.323 414.207 108.343 409.98 108.37C406.8 81.8033 401.053 54.4467 392.74 26.3ZM449.5 108.61C445.073 98.0367 439.007 86.8833 431.3 75.15C437.22 75.8833 443.51 76.7233 450.17 77.67C458.163 88.9633 463.463 99.3533 466.07 108.84C465.93 109.027 465.797 109.213 465.67 109.4C460.11 109.067 454.72 108.803 449.5 108.61Z" fill="black"/>
<path d="M62.78 78.33C60.82 78.89 58.85 79.4433 56.87 79.99C56.87 80.03 56.8733 80.0733 56.88 80.12C56.8867 80.16 56.89 80.2 56.89 80.24C58.8633 79.6067 60.8267 78.97 62.78 78.33ZM61.58 74.22C59.8467 75.82 58.1267 77.4267 56.42 79.04C56.44 79.0733 56.46 79.1033 56.48 79.13C56.5 79.1633 56.5167 79.1967 56.53 79.23C58.1967 77.5433 59.88 75.8733 61.58 74.22ZM57.87 70.15C56.4233 72.13 55.01 74.1333 53.63 76.16C53.6433 76.1733 53.6567 76.1867 53.67 76.2C53.69 76.2133 53.7067 76.2267 53.72 76.24C55.0733 74.1867 56.4567 72.1567 57.87 70.15ZM50.64 65.11C52.04 63.11 53.4767 61.1333 54.95 59.18C54.95 59.18 54.9467 59.18 54.94 59.18C53.46 61.1333 52.0267 63.11 50.64 65.11ZM31.16 48.72C28.3667 49.5533 25.5933 50.4 22.84 51.26C22.8533 51.2733 22.8667 51.2833 22.88 51.29C22.8867 51.3033 22.89 51.31 22.89 51.31C25.6233 50.43 28.38 49.5667 31.16 48.72ZM27.34 39.91C23.58 39.43 19.7067 38.8667 15.72 38.22C15.72 38.22 15.7133 38.2233 15.7 38.23C15.7133 38.2367 15.72 38.24 15.72 38.24C19.7 38.88 23.5733 39.4367 27.34 39.91ZM45.63 29.29C44.6367 28.27 43.68 27.2667 42.76 26.28C42.7267 26.28 42.7067 26.2833 42.7 26.29C42.68 26.29 42.66 26.29 42.64 26.29C43.6133 27.2767 44.61 28.2767 45.63 29.29ZM59.04 26.48C58.5733 27.7067 58.1567 28.9633 57.79 30.25C57.8033 30.25 57.8133 30.25 57.82 30.25C57.8333 30.2433 57.8467 30.2367 57.86 30.23C58.2133 28.95 58.6067 27.7 59.04 26.48ZM70.76 23.91C71.9133 22.3967 73.0567 20.88 74.19 19.36C73.05 20.88 71.9067 22.3967 70.76 23.91ZM88.84 45.78C87.8667 47.9067 86.9067 50.04 85.96 52.18C87.6133 52.26 89.2567 52.33 90.89 52.39C91.8033 50.2167 92.7267 48.0533 93.66 45.9C92.06 45.8667 90.4533 45.8267 88.84 45.78ZM76.67 45.08C74.8967 44.9133 73.1 44.7333 71.28 44.54C70.1267 46.5133 68.9967 48.5067 67.89 50.52C69.77 50.7667 71.6267 50.9967 73.46 51.21C74.5067 49.15 75.5767 47.1067 76.67 45.08ZM78.99 38.72C76.9033 39.5267 74.79 40.3167 72.65 41.09C72.65 41.1033 72.65 41.1167 72.65 41.13C72.6433 41.1433 72.6367 41.1567 72.63 41.17C74.7833 40.3767 76.9033 39.56 78.99 38.72ZM77.85 34.36C75.9033 35.9733 73.9433 37.57 71.97 39.15C71.9833 39.15 71.99 39.1533 71.99 39.16C71.9967 39.16 71.9967 39.1633 71.99 39.17C73.9567 37.5767 75.91 35.9733 77.85 34.36ZM64.78 32.95C65.5133 31.3967 66.28 29.8633 67.08 28.35C67.08 28.35 67.0733 28.3533 67.06 28.36C67.0467 28.36 67.0367 28.36 67.03 28.36C66.25 29.8667 65.5 31.3967 64.78 32.95ZM57.47 35.12C56.6767 33.96 55.91 32.8167 55.17 31.69C55.15 31.7033 55.1267 31.7133 55.1 31.72C55.0733 31.7333 55.0533 31.74 55.04 31.74C55.8333 32.8467 56.6433 33.9733 57.47 35.12ZM49.8 42.17C46.9333 42.4567 43.9933 42.6967 40.98 42.89C40.9867 42.8967 40.9867 42.91 40.98 42.93C40.9867 42.9367 40.99 42.95 40.99 42.97C43.9967 42.75 46.9333 42.4833 49.8 42.17ZM51.11 45.8C48.6233 46.9067 46.1333 48.0067 43.64 49.1C43.6533 49.12 43.6667 49.1367 43.68 49.15C43.6867 49.1633 43.6967 49.1767 43.71 49.19C46.1833 48.07 48.65 46.94 51.11 45.8ZM55.02 49.66C53.0733 51.2733 51.1567 52.9033 49.27 54.55C49.29 54.5633 49.31 54.5767 49.33 54.59C49.3433 54.6033 49.3633 54.6167 49.39 54.63C51.2367 52.9567 53.1133 51.3 55.02 49.66ZM61.04 53.57C59.4733 55.45 57.9267 57.3467 56.4 59.26C56.4133 59.26 56.42 59.2667 56.42 59.28C56.42 59.28 56.4267 59.28 56.44 59.28C57.94 57.36 59.4733 55.4567 61.04 53.57ZM69.76 59.69C68.1533 61.5433 66.5633 63.41 64.99 65.29C64.9967 65.2967 65 65.3 65 65.3C65 65.3067 65 65.31 65 65.31C66.5733 63.4233 68.16 61.55 69.76 59.69ZM74.75 66.32C72.9633 67.8533 71.18 69.3867 69.4 70.92C69.4067 70.92 69.4133 70.9267 69.42 70.94C69.4133 70.9467 69.4133 70.95 69.42 70.95C71.1933 69.4033 72.97 67.86 74.75 66.32ZM76.44 74.29C74.5667 75.0633 72.69 75.8333 70.81 76.6C70.8033 76.6133 70.8033 76.63 70.81 76.65C70.8033 76.6567 70.8033 76.6633 70.81 76.67C72.6967 75.8833 74.5733 75.09 76.44 74.29ZM56.22 107.45C56.1467 104.963 56.07 102.473 55.99 99.98C55.99 99.98 55.9867 99.98 55.98 99.98C56.0667 102.473 56.1467 104.963 56.22 107.45ZM36.94 105.7C36.3933 108.327 35.8467 110.96 35.3 113.6C35.3133 113.6 35.3233 113.6 35.33 113.6C35.3367 113.613 35.3467 113.62 35.36 113.62C35.8867 110.98 36.4133 108.34 36.94 105.7ZM27.36 97.72C26.4267 100 25.5233 102.307 24.65 104.64C24.6633 104.64 24.6733 104.647 24.68 104.66C24.68 104.673 24.6833 104.68 24.69 104.68C25.55 102.333 26.44 100.013 27.36 97.72ZM17.87 83.77C15.9233 84.69 14.0067 85.6367 12.12 86.61C12.1333 86.6167 12.14 86.6267 12.14 86.64C12.14 86.64 12.1433 86.6467 12.15 86.66C14.03 85.6733 15.9367 84.71 17.87 83.77ZM11.62 65.11C11.3067 62.05 11.0733 59.05 10.92 56.11C7.34 54.5767 3.7 53 0 51.38C0.606667 54.66 1.26667 57.9767 1.98 61.33C5.22 62.61 8.43333 63.87 11.62 65.11ZM32.37 72.3C34.8567 73.0067 37.2867 73.6733 39.66 74.3C40.0667 71.7733 40.5233 69.2867 41.03 66.84C38.55 66.1333 36.0033 65.3767 33.39 64.57C32.99 67.0967 32.65 69.6733 32.37 72.3ZM33.34 81.15C31.1933 81.75 29.05 82.35 26.91 82.95C26.9233 82.99 26.9333 83.0267 26.94 83.06C26.96 83.1 26.9767 83.1333 26.99 83.16C29.1033 82.4867 31.22 81.8167 33.34 81.15ZM36.89 87.77C35.5767 89.7367 34.2967 91.7267 33.05 93.74C33.07 93.7667 33.09 93.7933 33.11 93.82C33.1367 93.8533 33.1633 93.8833 33.19 93.91C34.3833 91.8367 35.6167 89.79 36.89 87.77ZM54.9 93.11C55.22 95.5167 55.54 97.92 55.86 100.32C55.8667 100.32 55.8733 100.317 55.88 100.31C55.8867 100.31 55.8933 100.31 55.9 100.31C55.5733 97.91 55.24 95.51 54.9 93.11ZM59.58 89.2C58.3333 87.6533 57.0733 86.0867 55.8 84.5C55.7867 84.52 55.7767 84.5333 55.77 84.54C55.7567 84.56 55.7433 84.58 55.73 84.6C57.03 86.1467 58.3133 87.68 59.58 89.2ZM67.62 83.73C68.26 81.24 68.62 78.73 68.58 76.34C64.7133 77.6667 60.8167 78.9667 56.89 80.24C56.92 80.69 56.91 81.38 56.69 82.42C60.3967 82.9067 64.04 83.3433 67.62 83.73ZM68.58 76.57C68.63 73.69 67.94 71.28 66.77 69.33C63.31 72.59 59.8967 75.89 56.53 79.23C56.71 79.49 56.79 79.7 56.83 79.81C56.86 79.92 56.88 79.97 56.87 79.99C60.81 78.8833 64.7133 77.7433 68.58 76.57ZM66.88 69.49C65.82 67.52 64.2 65.83 62.32 64.31C59.3533 68.2033 56.4867 72.18 53.72 76.24C55.27 77.49 56.06 78.44 56.42 79.04C59.86 75.8267 63.3467 72.6433 66.88 69.49ZM62.42 64.38C60.52 62.78 58.03 61.06 54.95 59.18C52.0767 63.1333 49.3633 67.2067 46.81 71.4C49.88 73.31 52.11 74.87 53.63 76.16C56.4567 72.1533 59.3867 68.2267 62.42 64.38ZM54.94 59.18C51.72 57.22 48.72 55.1 45.97 52.86C42.13 56.0933 38.48 59.4667 35.02 62.98C38.89 66.11 42.84 68.92 46.82 71.4C49.3667 67.2067 52.0733 63.1333 54.94 59.18ZM45.97 52.86C43.27 50.65 41.1 48.4 39.53 46.17C33.95 47.87 28.4033 49.5833 22.89 51.31C26.54 55.57 30.66 59.48 35.02 62.98C38.48 59.4667 42.13 56.0933 45.97 52.86ZM39.56 46.21C38.14 44.2 37.57 42.33 37.68 40.59C30.7867 40.1367 23.4667 39.3533 15.72 38.24C16.29 42.19 18.92 46.7 22.84 51.26C28.3867 49.5667 33.96 47.8833 39.56 46.21ZM37.69 40.62C37.9 39.16 38.95 37.6 41.28 35.93C35.8333 34.17 30.1767 32.2533 24.31 30.18C19.17 32.04 15.99 34.6 15.72 38.22C23.4667 39.3467 30.79 40.1467 37.69 40.62ZM41.28 35.93C43.57 34.41 46.13 33.32 48.86 32.48C46.7067 30.3533 44.6333 28.29 42.64 26.29C35.82 27.19 29.59 28.44 24.31 30.18C30.1767 32.2533 35.8333 34.17 41.28 35.93ZM48.77 32.52C51.61 31.59 54.6 30.85 57.79 30.25C58.6233 27.7367 59.61 25.3433 60.75 23.07C55.19 24.11 49.12 25.15 42.76 26.28C44.6733 28.2867 46.6767 30.3667 48.77 32.52ZM57.86 30.23C61.01 29.5 64.18 28.91 67.39 28.5C69.6367 25.44 71.9033 22.3933 74.19 19.36C70.18 20.4 65.72 21.67 60.68 23.08C59.5867 25.3467 58.6467 27.73 57.86 30.23ZM67.37 28.51C70.45 28.02 73.46 27.77 76.44 27.87C79.3 24.3367 82.1133 20.7667 84.88 17.16C81.62 17.44 78.09 18.18 74.19 19.36C71.9033 22.3933 69.63 25.4433 67.37 28.51ZM76.44 27.87C80.42 27.95 82.96 28.82 84.45 30.32C88.0033 26.84 91.4867 23.3133 94.9 19.74C92.78 17.52 89.38 16.76 84.88 17.16C82.1133 20.7667 79.3 24.3367 76.44 27.87ZM84.45 30.32C86.07 31.94 86.71 34.04 86.57 36.6C90.4033 34.4333 94.1733 32.2067 97.88 29.92C98.15 25.33 97.09 21.96 94.89 19.73C91.4833 23.31 88.0033 26.84 84.45 30.32ZM86.57 36.6C86.48 39.19 85.64 42.13 83.9 45.58C87.1933 45.7133 90.4467 45.82 93.66 45.9C96.31 40.01 97.75 34.62 97.88 29.92C94.1733 32.2067 90.4033 34.4333 86.57 36.6ZM91.86 39.49C88 39.4167 84.08 39.2933 80.1 39.12C77.8133 43.0933 75.6 47.1233 73.46 51.21C77.7133 51.5967 81.88 51.92 85.96 52.18C87.88 47.9133 89.8467 43.6833 91.86 39.49ZM81.84 45.46C83.58 42.12 84.72 38.91 85.04 36.03C81.0067 37.8233 76.87 39.5367 72.63 41.17C72.54 41.99 72.18 43.07 71.28 44.54C74.8733 44.9 78.3933 45.2067 81.84 45.46ZM85.03 36.11C85.49 33.12 84.9 30.9 83.51 29.41C79.7367 32.71 75.8967 35.9633 71.99 39.17C72.62 39.79 72.74 40.43 72.65 41.09C76.8767 39.51 81.0033 37.85 85.03 36.11ZM83.52 29.43C82.14 27.88 79.74 27.29 76.77 27.25C73.8767 30.7567 71.0133 34.2867 68.18 37.84C70.4 38.1 71.48 38.63 71.97 39.15C75.89 35.9567 79.74 32.7167 83.52 29.43ZM76.77 27.25C73.92 27.17 70.73 27.47 67.08 28.35C65.5467 31.4167 64.1467 34.5933 62.88 37.88C64.15 37.65 65.92 37.55 68.18 37.84C71.0133 34.2867 73.8767 30.7567 76.77 27.25ZM67.03 28.36C63.41 29.08 59.39 30.15 55.17 31.69C56.7033 33.9767 58.3267 36.33 60.04 38.75C60.61 38.46 61.48 38.12 62.93 37.87C64.1633 34.59 65.53 31.42 67.03 28.36ZM55.04 31.74C50.89 33.11 47.28 34.81 44.49 36.88C49.27 38.1333 53.8533 39.2367 58.24 40.19C58.82 39.52 59.44 39.07 60.16 38.69C58.3667 36.31 56.66 33.9933 55.04 31.74ZM44.49 36.88C42.29 38.63 41.02 40.64 40.98 42.89C46.86 42.41 52.4867 41.7333 57.86 40.86C57.87 40.74 57.94 40.54 58.24 40.19C53.8533 39.2367 49.27 38.1333 44.49 36.88ZM40.99 42.97C41.14 45.1 42.17 47.18 43.64 49.1C48.62 46.9 53.5333 44.6433 58.38 42.33C57.9 41.57 57.85 41.05 57.88 40.79C52.4933 41.71 46.8633 42.4367 40.99 42.97ZM43.71 49.19C45.2 51.06 47.1 52.85 49.27 54.55C53.1033 51.29 56.9967 48.0767 60.95 44.91C59.68 43.92 58.83 43.03 58.33 42.26C53.5167 44.62 48.6433 46.93 43.71 49.19ZM49.39 54.63C51.47 56.18 53.82 57.73 56.4 59.26C59.4933 55.4667 62.6733 51.7433 65.94 48.09C63.93 46.95 62.24 45.86 60.86 44.84C56.9667 48.0533 53.1433 51.3167 49.39 54.63ZM56.44 59.28C60.03 61.37 62.84 63.35 64.99 65.29C68.17 61.5567 71.4 57.8533 74.68 54.18C72.35 52.03 69.43 50.02 65.93 48.07C62.67 51.7367 59.5067 55.4733 56.44 59.28ZM65 65.31C67.1 67.18 68.5 69.06 69.4 70.92C72.9667 67.8533 76.54 64.7933 80.12 61.74C78.91 58.84 77.06 56.34 74.66 54.17C71.3933 57.85 68.1733 61.5633 65 65.31ZM69.42 70.95C70.32 72.78 70.75 74.65 70.81 76.6C74.5633 75.06 78.2967 73.4967 82.01 71.91C82.07 68.05 81.41 64.65 80.1 61.7C76.5333 64.78 72.9733 67.8633 69.42 70.95ZM70.81 76.67C70.9 78.59 70.64 80.92 69.88 83.83C73.32 84.11 76.7233 84.36 80.09 84.58C81.35 80.05 82.05 75.77 82.01 71.82C78.2967 73.4667 74.5633 75.0833 70.81 76.67ZM69.88 83.83C69.14 86.82 68.15 89.22 66.98 91.18C69.5267 93.5933 72.04 95.9767 74.52 98.33C76.99 94.12 78.81 89.48 80.09 84.58C76.7233 84.36 73.32 84.11 69.88 83.83ZM66.98 91.18C65.76 93.25 64.31 95 62.52 96.49C63.7933 100.617 65.04 104.723 66.26 108.81C69.39 106 72.17 102.5 74.52 98.33C72.04 95.9767 69.5267 93.5933 66.98 91.18ZM62.52 96.49C60.72 97.99 58.58 99.2 55.99 99.98C56.1433 104.96 56.28 109.923 56.4 114.87C59.87 113.6 63.18 111.63 66.26 108.81C65.04 104.723 63.7933 100.617 62.52 96.49ZM55.98 99.98C53.44 100.76 50.56 101.03 47.25 100.69C46.7167 105.963 46.17 111.23 45.61 116.49C49.37 116.67 52.96 116.16 56.41 114.87C56.2833 109.923 56.14 104.96 55.98 99.98ZM47.25 100.69C44.38 100.36 41.52 99.43 38.61 97.86C37.4967 103.087 36.4133 108.34 35.36 113.62C38.74 115.37 42.15 116.32 45.61 116.49C46.17 111.23 46.7167 105.963 47.25 100.69ZM38.67 97.88C35.76 96.23 33.04 93.96 30.47 91.11C28.3967 95.5167 26.47 100.04 24.69 104.68C28.25 108.72 31.75 111.64 35.3 113.6C36.3933 108.333 37.5167 103.093 38.67 97.88ZM30.51 91.15C27.95 88.33 25.77 85.02 23.91 81.12C19.8833 82.8867 15.9633 84.7333 12.15 86.66C16.19 93.91 20.41 99.96 24.65 104.64C26.4567 100.027 28.41 95.53 30.51 91.15ZM23.93 81.16C22.19 77.57 20.97 73.36 20.74 68.49C14.66 66.2367 8.40667 63.85 1.98 61.33C3.95 69.92 7.39 78.53 12.12 86.61C15.9533 84.7167 19.89 82.9 23.93 81.16ZM13.03 74.64C19.6567 76.8133 25.9733 78.7633 31.98 80.49C32.24 75.03 32.71 69.7233 33.39 64.57C26.4367 62.15 18.9467 59.33 10.92 56.11C11.3867 62.11 12.09 68.2867 13.03 74.64ZM24.38 69.76C24.42 74.08 25.23 78.59 26.91 82.95C31.1967 81.75 35.4867 80.5567 39.78 79.37C39.51 78.27 39.35 76.64 39.66 74.3C34.8 72.9667 29.7067 71.4533 24.38 69.76ZM26.99 83.16C28.59 87.23 30.64 90.83 33.05 93.74C35.61 89.76 38.3267 85.9 41.2 82.16C40.57 81.36 40.07 80.41 39.74 79.16C35.4733 80.4867 31.2233 81.82 26.99 83.16ZM33.19 93.91C35.36 96.5 37.7 98.36 40.13 99.62C41.37 94.4933 42.7167 89.4467 44.17 84.48C42.85 83.77 41.84 82.92 41.07 82C38.2833 85.8467 35.6567 89.8167 33.19 93.91ZM40.13 99.62C42.38 100.77 44.72 101.43 47.15 101.7C47.7233 96.4467 48.3467 91.2367 49.02 86.07C47.19 85.76 45.58 85.22 44.17 84.48C42.7167 89.4467 41.37 94.4933 40.13 99.62ZM47.15 101.7C50.17 102 53.12 101.68 55.86 100.32C55.22 95.5133 54.57 90.6967 53.91 85.87C52.97 86.23 51.41 86.45 49.02 86.07C48.3467 91.2367 47.7233 96.4467 47.15 101.7ZM55.9 100.31C58.57 98.97 61.11 96.82 63.22 93.66C60.7933 90.6867 58.2967 87.6667 55.73 84.6C55.48 84.93 54.97 85.46 53.86 85.9C54.5533 90.7067 55.2333 95.51 55.9 100.31ZM63.16 93.76C65.27 90.78 66.75 87.35 67.62 83.73C64.04 83.3433 60.3967 82.9067 56.69 82.42C56.48 83.41 56.17 84.02 55.8 84.5C58.32 87.6333 60.7733 90.72 63.16 93.76ZM159.69 16.98C161.063 16.8333 162.437 16.6867 163.81 16.54C164.437 14.14 165.063 11.7333 165.69 9.32C164.337 9.48 162.98 9.64333 161.62 9.81C160.973 12.1967 160.33 14.5867 159.69 16.98ZM136.35 110.42C135.81 112.893 135.277 115.367 134.75 117.84C136.31 117.873 137.873 117.907 139.44 117.94C139.96 115.46 140.483 112.98 141.01 110.5C139.457 110.473 137.903 110.447 136.35 110.42ZM125.01 110.22C123.39 111.467 121.77 112.72 120.15 113.98C120.35 115.16 120.547 116.343 120.74 117.53C121.62 117.55 122.497 117.57 123.37 117.59C123.91 115.13 124.457 112.673 125.01 110.22ZM117.49 46.83C119.17 45.59 120.843 44.3533 122.51 43.12C122.23 36.3867 122.04 29.7333 121.94 23.16C118.913 31.06 115.93 38.99 112.99 46.95C114.497 46.91 115.997 46.87 117.49 46.83ZM99.45 109.66C98.8833 112.1 98.3267 114.543 97.78 116.99C99.3467 117.03 100.917 117.07 102.49 117.11C103.043 114.663 103.603 112.22 104.17 109.78C102.597 109.74 101.023 109.7 99.45 109.66ZM87.98 109.34C86.3933 109.293 84.8033 109.243 83.21 109.19C82.67 111.637 82.1333 114.087 81.6 116.54C83.18 116.587 84.76 116.633 86.34 116.68C86.8867 114.233 87.4333 111.787 87.98 109.34ZM116.95 21.21C117.85 19.0367 118.75 16.8567 119.65 14.67C118.283 14.8167 116.913 14.9667 115.54 15.12C114.607 17.2733 113.67 19.4233 112.73 21.57C114.137 21.45 115.543 21.33 116.95 21.21ZM127.08 20.28C128.693 18.9933 130.3 17.6967 131.9 16.39C131.88 15.3567 131.863 14.3233 131.85 13.29C131.083 13.3833 130.32 13.4733 129.56 13.56C128.733 15.8 127.907 18.04 127.08 20.28ZM131.94 81.59C130.313 82.8567 128.683 84.1233 127.05 85.39C128.11 92.73 129.223 100.117 130.39 107.55C132.383 98.87 134.427 90.21 136.52 81.57C134.993 81.5767 133.467 81.5833 131.94 81.59ZM149.74 18.01C150.433 15.6633 151.13 13.3167 151.83 10.97C150.47 11.13 149.113 11.29 147.76 11.45C147.04 13.7833 146.323 16.1133 145.61 18.44C146.983 18.3 148.36 18.1567 149.74 18.01ZM155.56 17.41C147.167 48.0967 139.207 79.0733 131.68 110.34C134.793 110.393 137.903 110.447 141.01 110.5C148.27 78.9667 155.87 47.6467 163.81 16.54C161.063 16.8333 158.313 17.1233 155.56 17.41ZM137.98 103.02C134.22 102.967 130.457 102.913 126.69 102.86C125.57 107.767 124.463 112.677 123.37 117.59C127.163 117.677 130.957 117.76 134.75 117.84C135.817 112.893 136.893 107.953 137.98 103.02ZM129.86 106.43C126.813 84.83 124.363 63.7267 122.51 43.12C119.163 45.5933 115.79 48.0467 112.39 50.48C114.377 71.1667 116.963 92.3333 120.15 113.98C123.39 111.473 126.627 108.957 129.86 106.43ZM112.99 46.95C106.317 67.39 100.227 88.2533 94.72 109.54C97.8733 109.62 101.023 109.7 104.17 109.78C109.637 88.42 115.567 67.39 121.96 46.69C118.98 46.7833 115.99 46.87 112.99 46.95ZM101.18 102.38C97.36 102.28 93.53 102.17 89.69 102.05C88.55 106.91 87.4333 111.787 86.34 116.68C90.1533 116.787 93.9667 116.89 97.78 116.99C98.8933 112.103 100.027 107.233 101.18 102.38ZM92.74 109.48C101.073 79.0933 110.543 49.5433 121.15 20.83C118.35 21.0833 115.543 21.33 112.73 21.57C101.41 49.6767 91.57 78.8833 83.21 109.19C86.39 109.29 89.5667 109.387 92.74 109.48ZM114.24 27.76C117.7 27.52 121.153 27.2733 124.6 27.02C126.253 22.5267 127.907 18.04 129.56 13.56C126.26 13.9333 122.957 14.3033 119.65 14.67C117.85 19.03 116.047 23.3933 114.24 27.76ZM122.18 24.11C123.08 43.9233 124.703 64.35 127.05 85.39C130.31 82.8567 133.56 80.3133 136.8 77.76C134.52 56.74 132.887 36.2833 131.9 16.39C128.687 18.9833 125.447 21.5567 122.18 24.11ZM136.52 81.57C142.133 60.1033 147.917 38.7767 153.87 17.59C151.117 17.87 148.363 18.1533 145.61 18.44C139.297 39.3133 133.21 60.3633 127.35 81.59C130.41 81.59 133.467 81.5833 136.52 81.57ZM147.65 25.09C151.017 24.79 154.38 24.4867 157.74 24.18C159.04 19.38 160.333 14.59 161.62 9.81C158.36 10.1967 155.097 10.5833 151.83 10.97C150.437 15.6633 149.043 20.37 147.65 25.09ZM198.9 96.71C200.427 96.7233 201.957 96.7333 203.49 96.74C203.91 94.1467 204.33 91.55 204.75 88.95C203.223 88.9433 201.7 88.94 200.18 88.94C199.753 91.5333 199.327 94.1233 198.9 96.71ZM196.47 111.41C196.057 113.977 195.64 116.54 195.22 119.1C196.78 119.133 198.34 119.167 199.9 119.2C200.307 116.633 200.713 114.063 201.12 111.49C199.573 111.463 198.023 111.437 196.47 111.41ZM164.86 110.89C163.307 110.863 161.753 110.837 160.2 110.81C159.707 113.323 159.217 115.833 158.73 118.34C160.29 118.373 161.85 118.407 163.41 118.44C163.89 115.92 164.373 113.403 164.86 110.89ZM167.67 96.53C168.17 94.01 168.673 91.49 169.18 88.97C167.66 88.97 166.14 88.9733 164.62 88.98C164.1 91.4867 163.583 93.9967 163.07 96.51C164.603 96.5167 166.137 96.5233 167.67 96.53ZM187.92 13.95C189.293 13.8033 190.663 13.6567 192.03 13.51C192.53 10.9967 193.033 8.48 193.54 5.96C192.187 6.12 190.833 6.28333 189.48 6.45C188.96 8.95667 188.44 11.4567 187.92 13.95ZM168.29 110.94C167.81 113.467 167.333 115.99 166.86 118.51C168.42 118.543 169.98 118.577 171.54 118.61C172.007 116.077 172.473 113.547 172.94 111.02C171.387 110.993 169.837 110.967 168.29 110.94ZM157.04 110.76C155.487 110.74 153.933 110.717 152.38 110.69C151.873 113.183 151.37 115.68 150.87 118.18C152.43 118.213 153.99 118.243 155.55 118.27C156.043 115.77 156.54 113.267 157.04 110.76ZM177.98 15.02C178.54 12.5667 179.1 10.1067 179.66 7.64C178.307 7.8 176.953 7.96333 175.6 8.13C175.02 10.5833 174.44 13.03 173.86 15.47C175.233 15.3233 176.607 15.1733 177.98 15.02ZM202.27 52.96C203.73 52.9067 205.19 52.85 206.65 52.79C207.077 50.17 207.503 47.5467 207.93 44.92C206.483 44.9933 205.04 45.0667 203.6 45.14C203.16 47.7467 202.717 50.3533 202.27 52.96ZM199.81 67.45C199.363 70.05 198.92 72.65 198.48 75.25C199.973 75.23 201.47 75.21 202.97 75.19C203.403 72.5833 203.833 69.9733 204.26 67.36C202.773 67.3867 201.29 67.4167 199.81 67.45ZM173.47 68.08C171.983 68.12 170.497 68.1567 169.01 68.19C168.47 70.6967 167.933 73.2033 167.4 75.71C168.9 75.69 170.4 75.6667 171.9 75.64C172.42 73.12 172.943 70.6 173.47 68.08ZM176.4 54.07C176.933 51.55 177.467 49.03 178 46.51C176.56 46.59 175.117 46.67 173.67 46.75C173.123 49.25 172.573 51.7533 172.02 54.26C173.487 54.1933 174.947 54.13 176.4 54.07ZM212.75 11.27C214.117 11.1233 215.487 10.9767 216.86 10.83C217.253 8.21667 217.647 5.6 218.04 2.98C216.687 3.14667 215.333 3.31 213.98 3.47C213.567 6.07667 213.157 8.67667 212.75 11.27ZM210.35 26.25C209.93 28.8767 209.51 31.5033 209.09 34.13C210.51 34.0367 211.93 33.9433 213.35 33.85C213.757 31.2033 214.163 28.56 214.57 25.92C213.163 26.0333 211.757 26.1433 210.35 26.25ZM181.82 28.62C180.413 28.7333 179.01 28.85 177.61 28.97C177.057 31.4633 176.503 33.9567 175.95 36.45C177.37 36.35 178.79 36.25 180.21 36.15C180.75 33.6367 181.287 31.1267 181.82 28.62ZM184.89 14.28C185.417 11.8 185.947 9.31 186.48 6.81C185.127 6.97667 183.773 7.14 182.42 7.3C181.873 9.78 181.323 12.2533 180.77 14.72C182.143 14.5733 183.517 14.4267 184.89 14.28ZM194.31 96.68C193.477 101.567 192.65 106.45 191.83 111.33C194.923 111.383 198.02 111.437 201.12 111.49C201.907 106.583 202.697 101.667 203.49 96.74C200.43 96.72 197.37 96.7 194.31 96.68ZM197.74 103.68C187.267 103.56 176.797 103.443 166.33 103.33C165.35 108.37 164.377 113.407 163.41 118.44C174.01 118.66 184.613 118.88 195.22 119.1C196.053 113.973 196.893 108.833 197.74 103.68ZM169.51 110.96C170.417 106.16 171.333 101.357 172.26 96.55C169.2 96.5367 166.137 96.5233 163.07 96.51C162.11 101.277 161.153 106.043 160.2 110.81C163.307 110.863 166.41 110.913 169.51 110.96ZM166.18 104.09C176.66 104.21 187.14 104.333 197.62 104.46C198.473 99.2933 199.327 94.12 200.18 88.94C189.847 88.94 179.513 88.95 169.18 88.97C168.173 94.01 167.173 99.05 166.18 104.09ZM183.81 14.4C176.917 46.4933 170.193 78.65 163.64 110.87C166.74 110.917 169.84 110.967 172.94 111.02C179.193 78.5067 185.557 46.0033 192.03 13.51C189.29 13.8033 186.55 14.1 183.81 14.4ZM169.74 103.37C166.007 103.33 162.28 103.29 158.56 103.25C157.547 108.257 156.543 113.263 155.55 118.27C159.317 118.35 163.087 118.43 166.86 118.51C167.813 113.463 168.773 108.417 169.74 103.37ZM161.69 110.84C168.31 78.68 175.11 46.5933 182.09 14.58C179.35 14.8733 176.607 15.17 173.86 15.47C166.453 47.07 159.293 78.81 152.38 110.69C155.487 110.737 158.59 110.787 161.69 110.84ZM176.28 22.45C179.64 22.13 183 21.81 186.36 21.49C187.4 16.4633 188.44 11.45 189.48 6.45C186.207 6.84333 182.933 7.24 179.66 7.64C178.54 12.56 177.413 17.4967 176.28 22.45ZM197.9 53.14C197.047 57.9533 196.197 62.7567 195.35 67.55C198.323 67.4833 201.293 67.42 204.26 67.36C205.06 62.5133 205.857 57.6567 206.65 52.79C203.73 52.9033 200.813 53.02 197.9 53.14ZM201.14 59.64C192.44 59.9267 183.743 60.22 175.05 60.52C173.997 65.56 172.947 70.6 171.9 75.64C180.76 75.5 189.62 75.37 198.48 75.25C199.367 70.05 200.253 64.8467 201.14 59.64ZM177.92 67.97C178.873 63.2767 179.827 58.5767 180.78 53.87C177.86 54.0033 174.94 54.1333 172.02 54.26C171.013 58.9067 170.01 63.55 169.01 68.19C171.983 68.1167 174.953 68.0433 177.92 67.97ZM174.81 61.62C183.523 61.3333 192.233 61.0533 200.94 60.78C201.827 55.5667 202.713 50.3533 203.6 45.14C195.067 45.5867 186.533 46.0433 178 46.51C176.933 51.55 175.87 56.5867 174.81 61.62ZM208.64 11.72C207.807 16.6667 206.973 21.6233 206.14 26.59C208.947 26.3633 211.757 26.14 214.57 25.92C215.337 20.88 216.1 15.85 216.86 10.83C214.12 11.1233 211.38 11.42 208.64 11.72ZM211.61 18.39C202.217 19.29 192.823 20.1933 183.43 21.1C182.357 26.1133 181.283 31.13 180.21 36.15C189.837 35.4633 199.463 34.79 209.09 34.13C209.93 28.8767 210.77 23.63 211.61 18.39ZM186.03 28.26C187.023 23.4467 188.013 18.6367 189 13.83C186.26 14.13 183.517 14.4267 180.77 14.72C179.717 19.4667 178.663 24.2167 177.61 28.97C180.417 28.7367 183.223 28.5 186.03 28.26ZM183.28 21.79C192.687 20.89 202.093 19.9967 211.5 19.11C212.333 13.8833 213.16 8.67 213.98 3.47C204.813 4.58333 195.647 5.69667 186.48 6.81C185.42 11.79 184.353 16.7833 183.28 21.79ZM247.36 24.73C248.613 25.6433 249.873 26.5667 251.14 27.5C251.213 27.2133 251.287 26.9267 251.36 26.64C251.407 26.3467 251.45 26.0533 251.49 25.76C250.11 25.4067 248.733 25.0633 247.36 24.73ZM220.21 111.82C219.83 114.427 219.453 117.027 219.08 119.62C220.207 119.647 221.33 119.67 222.45 119.69C223.063 117.917 223.677 116.147 224.29 114.38C222.93 113.52 221.57 112.667 220.21 111.82ZM208.29 111.62C206.983 110.68 205.677 109.75 204.37 108.83C203.037 112.29 201.703 115.75 200.37 119.21C202.617 119.263 204.863 119.313 207.11 119.36C207.503 116.78 207.897 114.2 208.29 111.62ZM242.99 8.5C243.27 5.70667 243.547 2.90333 243.82 0.0900002C242.88 0.163333 241.94 0.240001 241 0.320001C240.48 2.15333 239.96 3.98 239.44 5.8C240.62 6.68667 241.803 7.58667 242.99 8.5ZM249.72 8.56C251.067 8.94667 252.41 9.34333 253.75 9.75C254.163 6.71 254.577 3.67667 254.99 0.650001C253.483 0.476667 251.973 0.316667 250.46 0.17C250.213 2.97667 249.967 5.77333 249.72 8.56ZM252.47 111.59C250.823 112.443 249.17 113.307 247.51 114.18C247.69 115.927 247.873 117.677 248.06 119.43C249.253 119.39 250.453 119.35 251.66 119.31C251.927 116.737 252.197 114.163 252.47 111.59ZM244.75 24.69C243.317 24.9967 241.883 25.31 240.45 25.63C240.43 25.93 240.413 26.2267 240.4 26.52C240.42 26.8 240.44 27.0767 240.46 27.35C241.893 26.4567 243.323 25.57 244.75 24.69ZM245.41 8.45C245.677 5.64333 245.943 2.82667 246.21 0C244.697 0.06 243.18 0.146667 241.66 0.26C241.52 3.34 241.373 6.42 241.22 9.5C242.62 9.14 244.017 8.79 245.41 8.45ZM252.19 8.72C253.557 7.85333 254.92 7.00333 256.28 6.17C256.087 4.36333 255.893 2.55333 255.7 0.740001C254.767 0.626667 253.83 0.516667 252.89 0.410001C252.657 3.18333 252.423 5.95333 252.19 8.72ZM265.18 111.25C264.967 113.797 264.75 116.34 264.53 118.88C266.943 118.8 269.36 118.72 271.78 118.64C271.193 115.253 270.61 111.853 270.03 108.44C268.417 109.373 266.8 110.31 265.18 111.25ZM255.44 74.32C256.987 74.3333 258.53 74.3467 260.07 74.36C260.297 71.7267 260.52 69.0933 260.74 66.46C259.22 66.4333 257.7 66.4067 256.18 66.38C255.933 69.0267 255.687 71.6733 255.44 74.32ZM253.97 89.37C253.703 91.9833 253.437 94.5967 253.17 97.21C254.777 97.19 256.383 97.17 257.99 97.15C258.237 94.55 258.48 91.9467 258.72 89.34C257.14 89.3467 255.557 89.3567 253.97 89.37ZM221.92 89.4C220.387 89.3933 218.857 89.39 217.33 89.39C216.937 92.01 216.543 94.6333 216.15 97.26C217.69 97.2667 219.23 97.2767 220.77 97.29C221.157 94.6633 221.54 92.0333 221.92 89.4ZM224.06 74.27C224.427 71.61 224.793 68.95 225.16 66.29C223.667 66.3033 222.173 66.32 220.68 66.34C220.3 68.9933 219.92 71.6433 219.54 74.29C221.047 74.2833 222.553 74.2767 224.06 74.27ZM243.61 22.04C234.917 51.5667 225.767 80.6367 216.16 109.25C218.86 110.963 221.57 112.673 224.29 114.38C233.77 85.7333 242.72 56.7733 251.14 27.5C248.62 25.6533 246.11 23.8333 243.61 22.04ZM221.35 103.98C217.397 103.933 213.443 103.883 209.49 103.83C208.69 109.023 207.897 114.2 207.11 119.36C211.103 119.447 215.093 119.533 219.08 119.62C219.833 114.42 220.59 109.207 221.35 103.98ZM212.25 114.41C224.357 80.73 235.797 46.3967 246.57 11.41C244.183 9.47 241.807 7.6 239.44 5.8C228.36 40.86 216.67 75.2033 204.37 108.83C206.983 110.69 209.61 112.55 212.25 114.41ZM242.14 16.86C244.413 16.8467 246.69 16.8667 248.97 16.92C249.47 11.3467 249.967 5.76333 250.46 0.17C248.247 0.0566667 246.033 0.0300002 243.82 0.0900002C243.267 5.69667 242.707 11.2867 242.14 16.86ZM245.71 7.54C244.897 12.98 244.073 18.3967 243.24 23.79C245.987 24.4167 248.737 25.0733 251.49 25.76C252.25 20.4267 253.003 15.09 253.75 9.75C251.063 8.95667 248.383 8.22 245.71 7.54ZM257.4 108.99C254.4 80.5967 251.603 51.6367 249.01 22.11C246.17 23.83 243.32 25.5767 240.46 27.35C242.64 56.7433 244.99 85.6867 247.51 114.18C250.817 112.453 254.113 110.723 257.4 108.99ZM249.05 23.84C249.23 18.4467 249.41 13.0367 249.59 7.61C246.803 8.17 244.013 8.8 241.22 9.5C240.96 14.8933 240.703 20.27 240.45 25.63C243.317 25.0033 246.183 24.4067 249.05 23.84ZM244.6 16.84C246.893 16.8733 249.183 16.9367 251.47 17.03C251.95 11.49 252.423 5.95 252.89 0.410001C250.663 0.203334 248.437 0.0666667 246.21 0C245.677 5.63333 245.14 11.2467 244.6 16.84ZM248.06 11.46C251.78 46.4933 255.857 80.6933 260.29 114.06C263.55 112.187 266.797 110.313 270.03 108.44C265.07 75.2067 260.487 41.1167 256.28 6.17C253.553 7.87 250.813 9.63333 248.06 11.46ZM265.83 103.58C261.643 103.66 257.463 103.74 253.29 103.82C252.743 109 252.2 114.163 251.66 119.31C255.947 119.17 260.237 119.027 264.53 118.88C264.963 113.793 265.397 108.693 265.83 103.58ZM250.83 74.28C250.303 79.3267 249.773 84.3633 249.24 89.39C252.393 89.3767 255.553 89.36 258.72 89.34C259.18 84.36 259.63 79.3667 260.07 74.36C256.983 74.3333 253.903 74.3067 250.83 74.28ZM254.75 81.49C244.11 81.4833 233.54 81.48 223.04 81.48C222.293 86.76 221.537 92.03 220.77 97.29C231.45 97.33 242.25 97.3033 253.17 97.21C253.703 91.9833 254.23 86.7433 254.75 81.49ZM226.52 89.42C227.213 84.3733 227.903 79.3167 228.59 74.25C225.57 74.2633 222.553 74.2767 219.54 74.29C218.807 79.33 218.07 84.3633 217.33 89.39C220.39 89.3967 223.453 89.4067 226.52 89.42ZM222.94 82.21C233.447 82.21 244.027 82.2133 254.68 82.22C255.187 76.9533 255.687 71.6733 256.18 66.38C245.793 66.2867 235.453 66.2567 225.16 66.29C224.427 71.61 223.687 76.9167 222.94 82.21ZM295.67 13.78C297.05 13.9533 298.43 14.1267 299.81 14.3C299.803 11.7933 299.793 9.27667 299.78 6.75C298.42 6.56333 297.063 6.37333 295.71 6.18C295.697 8.72 295.683 11.2533 295.67 13.78ZM293.56 110.54C293.453 113.013 293.343 115.483 293.23 117.95C294.903 117.897 296.577 117.843 298.25 117.79C298.35 115.337 298.443 112.88 298.53 110.42C296.87 110.46 295.213 110.5 293.56 110.54ZM281.55 110.83C279.897 110.87 278.243 110.91 276.59 110.95C276.417 113.47 276.243 115.987 276.07 118.5C277.743 118.447 279.417 118.393 281.09 118.34C281.243 115.84 281.397 113.337 281.55 110.83ZM285.67 12.54C285.737 9.97333 285.803 7.4 285.87 4.82C284.51 4.63333 283.153 4.44667 281.8 4.26C281.713 6.85333 281.623 9.44333 281.53 12.03C282.91 12.2033 284.29 12.3733 285.67 12.54ZM327.55 17.8C328.737 19.4733 329.93 21.1433 331.13 22.81C332.683 19.1033 334.207 15.4133 335.7 11.74C332.813 11.34 329.927 10.9367 327.04 10.53C327.213 12.9567 327.383 15.38 327.55 17.8ZM306.78 61.82C307.9 63.5667 309.03 65.3067 310.17 67.04C310.197 66.98 310.23 66.92 310.27 66.86C310.297 66.8067 310.327 66.75 310.36 66.69C309.16 65.07 307.967 63.4467 306.78 61.82ZM292.67 84.98C291.09 85.42 289.507 85.8633 287.92 86.31C288.28 91.2233 288.637 96.1233 288.99 101.01C291.35 97.37 293.687 93.74 296 90.12C294.887 88.4133 293.777 86.7 292.67 84.98ZM291.22 67.18C290.053 65.5867 288.89 63.99 287.73 62.39C287.283 63.2833 286.837 64.17 286.39 65.05C286.47 66.17 286.55 67.2933 286.63 68.42C288.163 68.0067 289.693 67.5933 291.22 67.18ZM300.79 47.59C299.643 45.9367 298.5 44.28 297.36 42.62C297.353 42.64 297.347 42.6567 297.34 42.67C297.333 42.69 297.327 42.71 297.32 42.73C298.473 44.35 299.63 45.97 300.79 47.59ZM315.24 16.24C315.147 13.7867 315.05 11.3233 314.95 8.85C314.297 8.76333 313.643 8.67333 312.99 8.58C312.61 9.45333 312.23 10.33 311.85 11.21C312.977 12.89 314.107 14.5667 315.24 16.24ZM318.42 109.97C317.013 111.33 315.607 112.693 314.2 114.06C314.68 115.12 315.157 116.183 315.63 117.25C316.53 117.223 317.433 117.197 318.34 117.17C318.367 114.77 318.393 112.37 318.42 109.97ZM299.69 65.74C298.683 63.84 297.687 61.9333 296.7 60.02C295.7 61.44 294.697 62.8567 293.69 64.27C294.377 66.1167 295.067 67.9533 295.76 69.78C297.08 68.4333 298.39 67.0867 299.69 65.74ZM307.63 54.4C308.85 53.0867 310.07 51.7767 311.29 50.47C310.297 48.0433 309.307 45.6133 308.32 43.18C307.08 45.0067 305.833 46.8367 304.58 48.67C305.593 50.59 306.61 52.5 307.63 54.4ZM332.75 109.66C332.777 112.013 332.797 114.37 332.81 116.73C335.97 116.637 339.137 116.54 342.31 116.44C340.477 112.84 338.643 109.23 336.81 105.61C335.457 106.95 334.103 108.3 332.75 109.66ZM291.53 13.27C290.857 45.9767 289.877 78.44 288.59 110.66C291.903 110.58 295.217 110.5 298.53 110.42C299.29 78.6067 299.717 46.5667 299.81 14.3C297.05 13.9533 294.29 13.61 291.53 13.27ZM293.87 103.1C289.91 103.16 285.953 103.223 282 103.29C281.7 108.317 281.397 113.333 281.09 118.34C285.137 118.207 289.183 118.077 293.23 117.95C293.45 113.01 293.663 108.06 293.87 103.1ZM286.52 110.71C287.92 78.4033 289.017 45.8533 289.81 13.06C287.05 12.7133 284.29 12.37 281.53 12.03C280.17 45.2833 278.523 78.2567 276.59 110.95C279.897 110.87 283.207 110.79 286.52 110.71ZM285.46 20.29C288.847 20.6633 292.237 21.0367 295.63 21.41C295.657 16.3233 295.683 11.2467 295.71 6.18C292.43 5.72667 289.15 5.27333 285.87 4.82C285.737 9.96667 285.6 15.1233 285.46 20.29ZM324.05 12.76C317.557 27.2333 310.627 41.95 303.26 56.91C305.607 60.1833 307.973 63.4433 310.36 66.69C317.733 51.8433 324.657 37.2167 331.13 22.81C328.743 19.47 326.383 16.12 324.05 12.76ZM303.45 56.56C298.883 64.2333 294.197 71.97 289.39 79.77C291.577 83.2433 293.78 86.6933 296 90.12C300.84 82.36 305.563 74.6667 310.17 67.04C307.91 63.56 305.67 60.0667 303.45 56.56ZM297.4 83.66C296.86 77.78 296.323 71.88 295.79 65.96C292.743 66.7733 289.69 67.5933 286.63 68.42C287.063 74.4067 287.493 80.37 287.92 86.31C291.087 85.4233 294.247 84.54 297.4 83.66ZM294.77 71.91C298.03 65.3767 301.217 58.8733 304.33 52.4C301.97 49.1933 299.633 45.97 297.32 42.73C294.193 49.2433 290.997 55.7967 287.73 62.39C290.057 65.5833 292.403 68.7567 294.77 71.91ZM304.29 52.5C309.303 41.9667 314.11 31.55 318.71 21.25C316.397 17.91 314.11 14.5633 311.85 11.21C307.223 21.5567 302.393 32.0267 297.36 42.62C299.647 45.9333 301.957 49.2267 304.29 52.5ZM315.53 23.65C319.71 24.1233 323.887 24.5967 328.06 25.07C327.72 20.2233 327.38 15.3767 327.04 10.53C323.013 9.97 318.983 9.41 314.95 8.85C315.143 13.7767 315.337 18.71 315.53 23.65ZM322.57 105.9C316.09 91.4267 309.75 76.71 303.55 61.75C300.977 64.41 298.38 67.0867 295.76 69.78C301.76 84.7867 307.907 99.5467 314.2 114.06C317.013 111.333 319.803 108.613 322.57 105.9ZM302.73 71.4C305.43 67.6067 308.093 63.8333 310.72 60.08C308.66 56.2933 306.613 52.49 304.58 48.67C301.987 52.43 299.36 56.2133 296.7 60.02C298.693 63.8333 300.703 67.6267 302.73 71.4ZM303.89 58.4C311.917 77.2333 320.167 95.6767 328.64 113.73C331.38 111.017 334.103 108.31 336.81 105.61C328.083 87.6233 319.577 69.2433 311.29 50.47C308.85 53.09 306.383 55.7333 303.89 58.4ZM332.65 102.58C327.91 102.633 323.18 102.69 318.46 102.75C318.433 107.563 318.393 112.37 318.34 117.17C323.16 117.023 327.983 116.877 332.81 116.73C332.77 112.017 332.717 107.3 332.65 102.58ZM390.23 96.34C391.937 96.36 393.65 96.38 395.37 96.4C395.17 94.2733 394.96 92.1467 394.74 90.02C393.027 89.9733 391.313 89.93 389.6 89.89C389.82 92.0433 390.03 94.1933 390.23 96.34ZM391.11 108.59C391.223 110.743 391.333 112.897 391.44 115.05C393.14 115.003 394.84 114.96 396.54 114.92C396.447 112.787 396.343 110.653 396.23 108.52C394.523 108.54 392.817 108.563 391.11 108.59ZM356.69 109.17C355.017 109.203 353.347 109.237 351.68 109.27C351.747 111.57 351.813 113.867 351.88 116.16C353.56 116.113 355.243 116.063 356.93 116.01C356.857 113.73 356.777 111.45 356.69 109.17ZM356.07 96.17C355.937 93.89 355.797 91.6067 355.65 89.32C354.01 89.3 352.377 89.2833 350.75 89.27C350.877 91.57 351.003 93.87 351.13 96.17C352.777 96.17 354.423 96.17 356.07 96.17ZM351.38 20.84C352.78 21.02 354.177 21.2 355.57 21.38C355.21 19.0467 354.853 16.7067 354.5 14.36C353.127 14.1667 351.757 13.9733 350.39 13.78C350.723 16.14 351.053 18.4933 351.38 20.84ZM360.41 109.1C360.503 111.367 360.59 113.637 360.67 115.91C362.357 115.857 364.043 115.807 365.73 115.76C365.637 113.513 365.54 111.263 365.44 109.01C363.767 109.043 362.09 109.073 360.41 109.1ZM348.28 109.34C346.607 109.373 344.937 109.407 343.27 109.44C343.323 111.767 343.37 114.09 343.41 116.41C345.09 116.363 346.773 116.313 348.46 116.26C348.4 113.953 348.34 111.647 348.28 109.34ZM341.27 19.54C341.01 17.1667 340.75 14.79 340.49 12.41C339.123 12.2167 337.76 12.0267 336.4 11.84C336.633 14.2333 336.863 16.6233 337.09 19.01C338.483 19.19 339.877 19.3667 341.27 19.54ZM380.7 59.44C382.313 59.5667 383.933 59.6933 385.56 59.82C385.113 57.6133 384.66 55.4033 384.2 53.19C382.6 53.05 381.01 52.91 379.43 52.77C379.857 54.9967 380.28 57.22 380.7 59.44ZM382.77 71.71C383.09 73.9033 383.403 76.0933 383.71 78.28C385.39 78.3533 387.073 78.4267 388.76 78.5C388.44 76.3333 388.107 74.1633 387.76 71.99C386.093 71.8967 384.43 71.8033 382.77 71.71ZM354.12 70.32C352.533 70.2533 350.95 70.1867 349.37 70.12C349.563 72.4333 349.75 74.75 349.93 77.07C351.53 77.1167 353.13 77.1667 354.73 77.22C354.53 74.92 354.327 72.62 354.12 70.32ZM352.82 57.49C352.567 55.17 352.307 52.85 352.04 50.53C350.527 50.41 349.013 50.2933 347.5 50.18C347.74 52.52 347.973 54.8567 348.2 57.19C349.74 57.29 351.28 57.39 352.82 57.49ZM376.87 24.16C378.29 24.3467 379.713 24.5367 381.14 24.73C380.553 22.4567 379.97 20.1733 379.39 17.88C378.003 17.68 376.62 17.4833 375.24 17.29C375.787 19.59 376.33 21.88 376.87 24.16ZM379.95 37.18C380.477 39.4333 380.997 41.6833 381.51 43.93C383.063 44.09 384.62 44.2533 386.18 44.42C385.62 42.1867 385.057 39.9467 384.49 37.7C382.97 37.5267 381.457 37.3533 379.95 37.18ZM350.02 33.91C348.567 33.7567 347.117 33.6033 345.67 33.45C345.937 35.81 346.2 38.1633 346.46 40.51C347.94 40.65 349.417 40.79 350.89 40.93C350.603 38.59 350.313 36.25 350.02 33.91ZM348.28 20.44C347.973 18.0867 347.667 15.7267 347.36 13.36C345.993 13.1733 344.627 12.9867 343.26 12.8C343.54 15.1667 343.82 17.5333 344.1 19.9C345.493 20.08 346.887 20.26 348.28 20.44ZM385.13 96.29C385.45 100.417 385.743 104.54 386.01 108.66C389.41 108.613 392.817 108.567 396.23 108.52C395.977 104.48 395.69 100.44 395.37 96.4C391.943 96.36 388.53 96.3233 385.13 96.29ZM390.69 102.14C379.183 102.187 367.75 102.25 356.39 102.33C356.59 106.89 356.77 111.45 356.93 116.01C368.403 115.683 379.907 115.363 391.44 115.05C391.22 110.743 390.97 106.44 390.69 102.14ZM361.72 109.08C361.507 104.78 361.277 100.48 361.03 96.18C357.723 96.1733 354.423 96.17 351.13 96.17C351.33 100.537 351.513 104.903 351.68 109.27C355.02 109.203 358.367 109.14 361.72 109.08ZM356.43 103.02C367.797 102.92 379.233 102.843 390.74 102.79C390.4 98.49 390.02 94.19 389.6 89.89C378.167 89.67 366.85 89.48 355.65 89.32C355.93 93.8867 356.19 98.4533 356.43 103.02ZM347.19 20.3C350.663 50.2067 353.397 79.84 355.39 109.2C358.737 109.133 362.087 109.07 365.44 109.01C363.047 80.11 359.757 50.9 355.57 21.38C352.777 21.02 349.983 20.66 347.19 20.3ZM360.09 102.3C356.063 102.34 352.047 102.377 348.04 102.41C348.2 107.03 348.34 111.647 348.46 116.26C352.52 116.14 356.59 116.023 360.67 115.91C360.497 111.37 360.303 106.833 360.09 102.3ZM353.29 109.24C351.39 79.7867 348.773 50.0667 345.44 20.08C342.66 19.72 339.877 19.3633 337.09 19.01C339.757 49.3967 341.817 79.54 343.27 109.44C346.61 109.373 349.95 109.307 353.29 109.24ZM342.04 26.68C345.473 27.08 348.913 27.48 352.36 27.88C351.707 23.1867 351.05 18.4867 350.39 13.78C347.09 13.3267 343.79 12.87 340.49 12.41C341.01 17.1633 341.527 21.92 342.04 26.68ZM375.89 59.08C376.563 63.22 377.21 67.3433 377.83 71.45C381.123 71.6233 384.433 71.8033 387.76 71.99C387.067 67.95 386.333 63.8933 385.56 59.82C382.32 59.5667 379.097 59.32 375.89 59.08ZM381.7 65.11C372.18 64.51 362.76 63.9433 353.44 63.41C353.893 68.0167 354.323 72.62 354.73 77.22C364.297 77.54 373.957 77.8933 383.71 78.28C383.083 73.9 382.413 69.51 381.7 65.11ZM358.89 70.53C358.43 66.2967 357.953 62.05 357.46 57.79C354.367 57.59 351.28 57.39 348.2 57.19C348.607 61.51 348.997 65.82 349.37 70.12C352.537 70.2533 355.71 70.39 358.89 70.53ZM353.55 64.42C362.883 64.94 372.32 65.4933 381.86 66.08C381.087 61.6533 380.277 57.2167 379.43 52.77C370.21 51.99 361.08 51.2433 352.04 50.53C352.56 55.17 353.063 59.8 353.55 64.42ZM372.61 23.6C373.57 27.9667 374.52 32.3233 375.46 36.67C378.453 37.01 381.463 37.3533 384.49 37.7C383.377 33.3933 382.26 29.07 381.14 24.73C378.293 24.35 375.45 23.9733 372.61 23.6ZM378.35 30.38C368.543 29.1867 358.797 28.0133 349.11 26.86C349.717 31.56 350.31 36.25 350.89 40.93C360.997 41.8967 371.203 42.8967 381.51 43.93C380.47 39.43 379.417 34.9133 378.35 30.38ZM354.38 34.37C353.747 29.9167 353.11 25.4533 352.47 20.98C349.677 20.62 346.887 20.26 344.1 19.9C344.627 24.4267 345.15 28.9433 345.67 33.45C348.57 33.7567 351.473 34.0633 354.38 34.37ZM349.2 27.51C358.9 28.65 368.667 29.8133 378.5 31C377.413 26.44 376.327 21.87 375.24 17.29C365.927 15.97 356.633 14.66 347.36 13.36C347.973 18.08 348.587 22.7967 349.2 27.51ZM392.74 26.3C392.013 24.04 391.29 21.77 390.57 19.49C389.177 19.2833 387.783 19.08 386.39 18.88C387.057 21.1667 387.723 23.4433 388.39 25.71C389.837 25.9033 391.287 26.1 392.74 26.3ZM460.25 77.92C457.89 76.02 455.507 74.1133 453.1 72.2C453.093 72.1933 453.09 72.1933 453.09 72.2C453.077 72.2 453.067 72.2033 453.06 72.21C455.487 74.1233 457.883 76.0267 460.25 77.92ZM447.97 80.26C446.83 78.3067 445.62 76.33 444.34 74.33C444.153 74.3433 443.973 74.36 443.8 74.38C443.633 74.4267 443.473 74.4733 443.32 74.52C444.913 76.4533 446.463 78.3667 447.97 80.26ZM442.48 81.7C442.667 83.6067 442.8 85.5 442.88 87.38C443.46 87.44 444.037 87.5033 444.61 87.57C445.123 87.4233 445.647 87.2833 446.18 87.15C444.993 85.35 443.76 83.5333 442.48 81.7ZM416.21 79.06C414.317 78.9333 412.44 78.8133 410.58 78.7C410.927 80.7533 411.253 82.8033 411.56 84.85C413.393 84.9567 415.243 85.0667 417.11 85.18C416.837 83.1467 416.537 81.1067 416.21 79.06ZM413.55 67.16C412.983 65.0467 412.393 62.9267 411.78 60.8C409.933 60.6067 408.107 60.4167 406.3 60.23C406.893 62.39 407.467 64.5467 408.02 66.7C409.847 66.8467 411.69 67 413.55 67.16ZM444.49 65.24C441.737 63.8533 439.053 62.48 436.44 61.12C436.44 61.1333 436.44 61.1467 436.44 61.16C436.44 61.1733 436.44 61.1867 436.44 61.2C439.06 62.54 441.743 63.8867 444.49 65.24ZM436.38 50.87C435.02 51.59 433.653 52.31 432.28 53.03C432.293 53.0433 432.303 53.0533 432.31 53.06C432.323 53.0733 432.33 53.08 432.33 53.08C433.69 52.3467 435.04 51.61 436.38 50.87ZM408.69 40.69C407.777 38.45 406.86 36.2067 405.94 33.96C404.373 33.7467 402.81 33.5333 401.25 33.32C402.083 35.5667 402.913 37.8067 403.74 40.04C405.38 40.2533 407.03 40.47 408.69 40.69ZM422.74 108.31C422.733 110.303 422.72 112.3 422.7 114.3C424.44 114.267 426.183 114.233 427.93 114.2C427.997 112.233 428.06 110.27 428.12 108.31C426.32 108.31 424.527 108.31 422.74 108.31ZM409.98 108.37C408.247 108.39 406.513 108.407 404.78 108.42C404.873 110.513 404.957 112.607 405.03 114.7C406.743 114.66 408.46 114.62 410.18 114.58C410.12 112.507 410.053 110.437 409.98 108.37ZM449.5 108.61C447.593 109.377 445.723 110.167 443.89 110.98C444.237 111.967 444.577 112.96 444.91 113.96C446.01 113.947 447.107 113.937 448.2 113.93C448.613 112.143 449.047 110.37 449.5 108.61ZM431.3 75.15C430.793 73.1233 430.243 71.0833 429.65 69.03C426.17 68.6233 422.777 68.2367 419.47 67.87C421.743 71.0433 423.973 74.19 426.16 77.31C427.847 76.5767 429.56 75.8567 431.3 75.15ZM450.17 77.67C452.49 77.1567 454.86 76.6633 457.28 76.19C456.093 74.99 454.88 73.7767 453.64 72.55C451.867 72.25 450.133 71.9633 448.44 71.69C449.093 73.71 449.67 75.7033 450.17 77.67ZM466.07 108.84C468.397 109.053 470.783 109.29 473.23 109.55C473.577 109.203 473.92 108.86 474.26 108.52C474.253 108.187 474.247 107.85 474.24 107.51C471.407 107.91 468.683 108.353 466.07 108.84ZM465.67 109.4C464.63 110.907 463.637 112.437 462.69 113.99C464.67 114.05 466.7 114.13 468.78 114.23C470.067 112.823 471.38 111.433 472.72 110.06C470.307 109.813 467.957 109.593 465.67 109.4ZM394.95 33.08C402.15 34.04 409.55 35.06 417.15 36.14C414.81 31.5667 412.527 26.9833 410.3 22.39C403.667 21.4033 397.09 20.4367 390.57 19.49C392.017 24.03 393.477 28.56 394.95 33.08ZM417.15 36.14C421.67 36.81 425.96 38.3 430.1 40.39C428.607 36.29 427.04 32.1633 425.4 28.01C419.87 24.87 414.94 23.09 410.3 22.39C412.527 26.9833 414.81 31.5667 417.15 36.14ZM430.1 40.39C434.39 42.48 438.39 45.08 442.23 48.13C444.063 46.1833 445.757 44.2067 447.31 42.2C438.89 36 431.59 31.28 425.4 28.01C427.04 32.1633 428.607 36.29 430.1 40.39ZM442.23 48.13C446.13 51.13 450.11 54.92 453.72 59.7C459.86 60.8467 466.277 62.0633 472.97 63.35C465.63 55.91 456.81 48.68 447.31 42.2C445.757 44.2067 444.063 46.1833 442.23 48.13ZM453.72 59.7C456.34 63.43 457.26 66.07 457.02 67.92C464.133 70.9333 471.71 74.07 479.75 77.33C481.05 73.91 478.38 69.1 472.97 63.35C466.277 62.0633 459.86 60.8467 453.72 59.7ZM457.02 67.92C456.59 69.83 455.27 71.23 453.1 72.2C457.867 76.0133 462.48 79.7667 466.94 83.46C472.76 82.26 477.35 80.29 479.75 77.33C471.71 74.07 464.133 70.9333 457.02 67.92ZM453.06 72.21C450.82 73.25 447.9 73.97 444.34 74.33C446.76 78.2833 448.933 82.1533 450.86 85.94C456.39 85.55 461.85 84.75 466.99 83.44C462.497 79.76 457.853 76.0167 453.06 72.21ZM443.32 74.52C441.613 75.02 439.93 75.53 438.27 76.05C441.077 79.8167 443.713 83.5167 446.18 87.15C448.08 86.67 450.027 86.21 452.02 85.77C449.32 82.0967 446.42 78.3467 443.32 74.52ZM441.44 75.85C432.047 74.6833 423.237 73.69 415.01 72.87C415.81 76.9967 416.51 81.1 417.11 85.18C425.23 85.7667 433.82 86.5 442.88 87.38C442.613 83.5933 442.133 79.75 441.44 75.85ZM422.05 79.48C421.257 75.5867 420.35 71.66 419.33 67.7C415.477 67.34 411.707 67.0067 408.02 66.7C408.953 70.72 409.807 74.72 410.58 78.7C414.333 78.94 418.157 79.2 422.05 79.48ZM415.03 73.43C421.09 74.01 427.43 74.6733 434.05 75.42C432.957 71.3533 431.677 67.23 430.21 63.05C423.797 62.2233 417.653 61.4733 411.78 60.8C412.96 65.04 414.043 69.25 415.03 73.43ZM434.05 75.42C438.32 75.96 442.51 75.92 446.09 74.86C442.497 70.9133 438.817 66.9167 435.05 62.87C434.26 63.21 432.8 63.42 430.21 63.05C431.677 67.23 432.957 71.3533 434.05 75.42ZM446.09 74.86C449.67 73.91 452.29 72.16 453.33 69.47C447.437 66.65 441.807 63.8933 436.44 61.2C436.34 61.93 435.94 62.48 435.05 62.87C438.817 66.9167 442.497 70.9133 446.09 74.86ZM453.29 69.53C454.14 66.93 453.17 63.68 450.8 60.03C445.44 59.1033 440.333 58.25 435.48 57.47C436.33 59.12 436.55 60.26 436.44 61.12C441.807 63.8667 447.423 66.67 453.29 69.53ZM450.8 60.03C448.15 56.21 444.61 52.34 440.27 48.64C437.677 50.1267 435.03 51.6067 432.33 53.08C433.33 54.09 434.43 55.49 435.48 57.47C440.333 58.25 445.44 59.1033 450.8 60.03ZM440.34 48.7C435.96 44.81 431.54 41.67 427.38 39.39C428.16 43.2167 428.763 46.9967 429.19 50.73C430.48 51.42 431.43 52.17 432.28 53.03C435.013 51.59 437.7 50.1467 440.34 48.7ZM427.38 39.39C423.44 37.13 419.95 35.97 416.82 35.51C419.167 40.0433 421.477 44.55 423.75 49.03C426.17 49.38 427.96 50.07 429.19 50.73C428.763 46.9967 428.16 43.2167 427.38 39.39ZM416.82 35.51C413.14 34.9767 409.513 34.46 405.94 33.96C407.773 38.4467 409.573 42.9067 411.34 47.34C415.367 47.8733 419.503 48.4367 423.75 49.03C421.477 44.55 419.167 40.0433 416.82 35.51ZM403.74 40.04C410.793 63.4667 415.357 86.2267 417.43 108.32C420.97 108.313 424.533 108.31 428.12 108.31C426.853 86.9567 422.077 64.6467 413.79 41.38C410.39 40.92 407.04 40.4733 403.74 40.04ZM422.71 102.36C418.323 102.293 413.983 102.237 409.69 102.19C409.883 106.31 410.047 110.44 410.18 114.58C414.34 114.487 418.513 114.393 422.7 114.3C422.727 110.307 422.73 106.327 422.71 102.36ZM415.22 108.34C412.187 82.1133 406.157 54.97 397.13 26.91C394.203 26.5033 391.29 26.1033 388.39 25.71C396.077 53.97 401.54 81.54 404.78 108.42C408.247 108.387 411.727 108.36 415.22 108.34ZM455.72 106.5C451.467 96.1067 445.123 84.9867 436.69 73.14C433.083 74.48 429.573 75.87 426.16 77.31C433.36 88.99 439.27 100.213 443.89 110.98C447.63 109.4 451.573 107.907 455.72 106.5ZM432.42 81.13C438.28 81.7767 444.47 82.5267 450.99 83.38C450.443 79.5733 449.593 75.6767 448.44 71.69C441.8 70.69 435.537 69.8033 429.65 69.03C430.737 73.11 431.66 77.1433 432.42 81.13ZM443.67 79.39C450.903 90.53 456.04 100.963 459.08 110.69C463.74 109.457 468.793 108.397 474.24 107.51C471.98 98.1767 466.327 87.7367 457.28 76.19C452.54 77.1767 448.003 78.2433 443.67 79.39ZM459.47 108.39C459.37 108.59 459.27 108.79 459.17 108.99C463.503 109.263 468.02 109.62 472.72 110.06C472.893 109.887 473.063 109.717 473.23 109.55C468.457 109.077 463.87 108.69 459.47 108.39ZM468.98 104.99C462.727 104.377 456.72 103.857 450.96 103.43C449.987 106.883 449.067 110.383 448.2 113.93C452.953 113.917 457.783 113.937 462.69 113.99C464.677 110.93 466.773 107.93 468.98 104.99Z" fill="black"/>
</svg>
