<svg width="112" height="20" viewBox="0 0 112 20" fill="none" xmlns="http://www.w3.org/2000/svg">
<path d="M1 1C6.50194 1 6.50194 19 12.0039 19C17.5058 19 17.5058 1 23.0077 1C28.5097 1 28.5097 19 33.9987 19C39.5008 19 39.5008 1 44.9897 1C50.4918 1 50.4918 19 55.9806 19C61.4827 19 61.4827 1 66.9843 1C72.4864 1 72.4864 19 77.9885 19C83.4901 19 83.4901 1 88.9922 1C94.4942 1 94.4942 19 99.9963 19C105.498 19 105.498 1 111 1" stroke="#4F4F4F" stroke-width="2" stroke-miterlimit="10" stroke-linecap="round"/>
</svg>
